<svg width="20" height="21" viewBox="0 0 20 21" fill="none" xmlns="http://www.w3.org/2000/svg">
<path d="M2.82157 5.22239C2.19129 4.51796 1.87615 4.16574 1.86426 3.8664C1.85393 3.60636 1.96568 3.35643 2.16635 3.19074C2.39736 3 2.86998 3 3.81523 3H16.1843C17.1296 3 17.6022 3 17.8332 3.19074C18.0339 3.35643 18.1456 3.60636 18.1353 3.8664C18.1234 4.16574 17.8083 4.51796 17.178 5.22239L12.4228 10.537C12.2972 10.6774 12.2343 10.7477 12.1895 10.8276C12.1498 10.8984 12.1207 10.9747 12.103 11.054C12.0831 11.1435 12.0831 11.2377 12.0831 11.4261V15.882C12.0831 16.0449 12.0831 16.1264 12.0568 16.1969C12.0336 16.2591 11.9958 16.3149 11.9467 16.3596C11.891 16.4102 11.8154 16.4404 11.664 16.501L8.83071 17.6343C8.52442 17.7568 8.37128 17.8181 8.24834 17.7925C8.14084 17.7702 8.0465 17.7063 7.98583 17.6148C7.91645 17.5101 7.91645 17.3452 7.91645 17.0153V11.4261C7.91645 11.2377 7.91645 11.1435 7.89655 11.054C7.8789 10.9747 7.84975 10.8984 7.81003 10.8276C7.76523 10.7477 7.70241 10.6774 7.57677 10.537L2.82157 5.22239Z" stroke="#A140F2" stroke-width="1.66667" stroke-linecap="round" stroke-linejoin="round"/>
</svg>
