<svg width="249" height="252" viewBox="0 0 249 252" fill="none" xmlns="http://www.w3.org/2000/svg">
<path d="M108.221 16.4156L110.939 13.6609C111.065 13.7844 111.266 13.783 111.389 13.658L112.972 12.0542C113.477 11.5427 114.007 11.0724 114.559 10.643C114.697 10.5358 114.723 10.3376 114.617 10.199C115.619 9.44973 116.688 8.83006 117.8 8.33992C117.869 8.50012 118.054 8.57538 118.215 8.50807C119.533 7.95795 120.909 7.59072 122.305 7.40647C122.478 7.38361 122.6 7.22546 122.579 7.05244C123.804 6.91474 125.041 6.91474 126.266 7.05244C126.245 7.22546 126.367 7.38361 126.54 7.40647C127.936 7.59072 129.312 7.95795 130.63 8.50807C130.791 8.57538 130.976 8.50012 131.045 8.33992C132.157 8.83006 133.226 9.44973 134.228 10.199C134.122 10.3376 134.148 10.5358 134.286 10.643C134.838 11.0724 135.368 11.5427 135.873 12.0542L137.456 13.658C137.579 13.783 137.78 13.7844 137.906 13.6609L140.624 16.4156C140.499 16.5391 140.498 16.7405 140.621 16.8656L143.787 20.0732C143.911 20.1983 144.112 20.1996 144.237 20.0761L146.956 22.8308C146.831 22.9543 146.83 23.1557 146.953 23.2808L150.119 26.4884C150.242 26.6135 150.444 26.6148 150.569 26.4913L153.288 29.246C153.163 29.3695 153.161 29.5709 153.285 29.696L156.451 32.9036C156.574 33.0287 156.776 33.03 156.901 32.9066L159.619 35.6613C159.494 35.7847 159.493 35.9861 159.616 36.1112L162.782 39.3188C162.906 39.4439 163.107 39.4452 163.232 39.3218L165.951 42.0765C165.826 42.1999 165.825 42.4014 165.948 42.5264L169.114 45.734C169.237 45.8591 169.439 45.8604 169.564 45.737L172.283 48.4917C172.158 48.6151 172.156 48.8166 172.28 48.9416L175.446 52.1493C175.569 52.2743 175.771 52.2756 175.896 52.1522L178.614 54.9069C178.489 55.0303 178.488 55.2318 178.612 55.3569L181.777 58.5645C181.901 58.6895 182.102 58.6908 182.227 58.5674L184.946 61.3221C184.821 61.4455 184.82 61.647 184.943 61.7721L188.109 64.9797C188.232 65.1047 188.434 65.1061 188.559 64.9826L191.278 67.7373C191.153 67.8608 191.151 68.0622 191.275 68.1873L194.441 71.3949C194.564 71.52 194.766 71.5213 194.891 71.3978L197.609 74.1525C197.484 74.276 197.483 74.4774 197.607 74.6025L200.772 77.8101C200.896 77.9352 201.097 77.9365 201.222 77.813L203.941 80.5677C203.816 80.6912 203.815 80.8926 203.938 81.0177L207.104 84.2253C207.228 84.3504 207.429 84.3517 207.554 84.2283L210.273 86.983C210.148 87.1064 210.146 87.3079 210.27 87.4329L213.436 90.6405C213.559 90.7656 213.761 90.7669 213.886 90.6435L216.605 93.3982C216.479 93.5216 216.478 93.7231 216.602 93.8481L219.767 97.0557C219.891 97.1808 220.092 97.1821 220.217 97.0587L222.936 99.8134C222.811 99.9368 222.81 100.138 222.933 100.263L226.099 103.471C226.223 103.596 226.424 103.597 226.549 103.474L229.268 106.229C229.143 106.352 229.142 106.553 229.265 106.679L232.431 109.886C232.554 110.011 232.756 110.013 232.881 109.889L235.6 112.644C235.475 112.767 235.473 112.969 235.597 113.094L237.18 114.698C237.676 115.2 238.132 115.727 238.548 116.275C238.654 116.414 238.852 116.442 238.992 116.337C239.715 117.328 240.314 118.381 240.787 119.475C240.627 119.543 240.55 119.728 240.617 119.889C241.149 121.188 241.504 122.543 241.683 123.916C241.705 124.089 241.863 124.211 242.036 124.191C242.169 125.392 242.169 126.605 242.036 127.807C241.863 127.786 241.705 127.908 241.683 128.082C241.504 129.455 241.149 130.809 240.617 132.108C240.55 132.27 240.627 132.454 240.787 132.522C240.314 133.616 239.715 134.669 238.992 135.66C238.852 135.556 238.654 135.583 238.548 135.722C238.132 136.27 237.676 136.797 237.18 137.3L235.597 138.904C235.473 139.029 235.475 139.23 235.6 139.353L232.881 142.108C232.756 141.985 232.554 141.986 232.431 142.111L229.265 145.319C229.142 145.444 229.143 145.645 229.268 145.769L226.549 148.523C226.424 148.4 226.223 148.401 226.099 148.526L222.933 151.734C222.81 151.859 222.811 152.06 222.936 152.184L220.217 154.939C220.092 154.815 219.891 154.816 219.767 154.942L216.602 158.149C216.478 158.274 216.479 158.476 216.605 158.599L213.886 161.354C213.761 161.23 213.559 161.232 213.436 161.357L210.27 164.564C210.146 164.689 210.148 164.891 210.273 165.014L207.554 167.769C207.429 167.646 207.228 167.647 207.104 167.772L203.938 170.98C203.815 171.105 203.816 171.306 203.941 171.43L201.222 174.184C201.097 174.061 200.896 174.062 200.772 174.187L197.607 177.395C197.483 177.52 197.484 177.721 197.61 177.845L194.891 180.599C194.766 180.476 194.564 180.477 194.441 180.602L191.275 183.81C191.151 183.935 191.153 184.137 191.278 184.26L188.559 187.015C188.434 186.891 188.232 186.893 188.109 187.018L184.943 190.225C184.82 190.35 184.821 190.552 184.946 190.675L182.227 193.43C182.102 193.306 181.901 193.308 181.777 193.433L178.612 196.64C178.488 196.766 178.489 196.967 178.614 197.09L175.896 199.845C175.771 199.722 175.569 199.723 175.446 199.848L172.28 203.056C172.156 203.181 172.158 203.382 172.283 203.506L169.564 206.26C169.439 206.137 169.237 206.138 169.114 206.263L165.948 209.471C165.825 209.596 165.826 209.797 165.951 209.921L163.232 212.676C163.107 212.552 162.906 212.553 162.782 212.678L159.616 215.886C159.493 216.011 159.494 216.213 159.619 216.336L156.901 219.091C156.776 218.967 156.574 218.969 156.451 219.094L153.285 222.301C153.161 222.426 153.163 222.628 153.288 222.751L150.569 225.506C150.444 225.383 150.242 225.384 150.119 225.509L146.953 228.716C146.83 228.842 146.831 229.043 146.956 229.166L144.237 231.921C144.112 231.798 143.911 231.799 143.787 231.924L140.621 235.132C140.498 235.257 140.499 235.458 140.624 235.582L137.906 238.336C137.78 238.213 137.579 238.214 137.456 238.339L135.873 239.943C135.368 240.455 134.838 240.925 134.286 241.354C134.148 241.462 134.122 241.66 134.228 241.798C133.226 242.548 132.157 243.167 131.045 243.657C130.976 243.497 130.791 243.422 130.63 243.489C129.312 244.039 127.936 244.407 126.54 244.591C126.367 244.614 126.245 244.772 126.266 244.945C125.041 245.083 123.804 245.083 122.579 244.945C122.6 244.772 122.478 244.614 122.305 244.591C120.909 244.407 119.533 244.039 118.215 243.489C118.054 243.422 117.869 243.497 117.8 243.657C116.688 243.167 115.619 242.548 114.617 241.798C114.723 241.66 114.697 241.462 114.559 241.354C114.007 240.925 113.477 240.455 112.972 239.943L111.389 238.339C111.266 238.214 111.065 238.213 110.939 238.336L108.221 235.582C108.346 235.458 108.347 235.257 108.224 235.132L105.058 231.924C104.934 231.799 104.733 231.798 104.608 231.921L101.889 229.166C102.014 229.043 102.015 228.842 101.892 228.717L98.7261 225.509C98.6026 225.384 98.4012 225.383 98.2761 225.506L95.5573 222.751C95.6823 222.628 95.6837 222.426 95.5602 222.301L92.3944 219.094C92.2709 218.969 92.0695 218.967 91.9444 219.091L89.2256 216.336C89.3507 216.213 89.352 216.011 89.2285 215.886L86.0627 212.678C85.9393 212.553 85.7378 212.552 85.6127 212.676L82.8939 209.921C83.019 209.797 83.0203 209.596 82.8969 209.471L79.731 206.263C79.6076 206.138 79.4061 206.137 79.2811 206.26L76.5622 203.506C76.6873 203.382 76.6886 203.181 76.5652 203.056L73.3993 199.848C73.2759 199.723 73.0744 199.722 72.9494 199.845L70.2305 197.09C70.3556 196.967 70.3569 196.766 70.2335 196.64L67.0676 193.433C66.9442 193.308 66.7428 193.306 66.6177 193.43L63.8989 190.675C64.0239 190.552 64.0252 190.35 63.9018 190.225L60.736 187.018C60.6125 186.893 60.4111 186.891 60.286 187.015L57.5672 184.26C57.6922 184.137 57.6936 183.935 57.5701 183.81L54.4043 180.602C54.2808 180.477 54.0794 180.476 53.9543 180.599L51.2355 177.845C51.3606 177.721 51.3619 177.52 51.2384 177.395L48.0726 174.187C47.9492 174.062 47.7477 174.061 47.6226 174.184L44.9038 171.43C45.0289 171.306 45.0302 171.105 44.9068 170.98L41.7409 167.772C41.6175 167.647 41.416 167.646 41.291 167.769L38.5721 165.014C38.6972 164.891 38.6985 164.689 38.5751 164.564L35.4092 161.357C35.2858 161.232 35.0843 161.23 34.9593 161.354L32.2404 158.599C32.3655 158.476 32.3668 158.274 32.2434 158.149L29.0776 154.942C28.9541 154.816 28.7527 154.815 28.6276 154.939L25.9088 152.184C26.0338 152.06 26.0352 151.859 25.9117 151.734L22.7459 148.526C22.6224 148.401 22.421 148.4 22.2959 148.523L19.5771 145.769C19.7021 145.645 19.7035 145.444 19.58 145.319L16.4142 142.111C16.2907 141.986 16.0893 141.985 15.9642 142.108L13.2454 139.353C13.3705 139.23 13.3718 139.029 13.2483 138.904L11.6654 137.3C11.1693 136.797 10.713 136.27 10.2966 135.722C10.1909 135.583 9.99298 135.556 9.85323 135.66C9.12985 134.669 8.53131 133.616 8.05761 132.522C8.21825 132.454 8.29472 132.27 8.22846 132.108C7.69602 130.809 7.34062 129.455 7.16231 128.082C7.13982 127.908 6.98193 127.786 6.80886 127.807C6.6764 126.605 6.6764 125.392 6.80886 124.191C6.98193 124.211 7.13982 124.089 7.16231 123.916C7.34061 122.543 7.69602 121.188 8.22846 119.889C8.29472 119.728 8.21825 119.543 8.05761 119.475C8.53131 118.381 9.12985 117.328 9.85323 116.337C9.99297 116.442 10.1909 116.414 10.2966 116.275C10.713 115.727 11.1693 115.2 11.6654 114.698L13.2483 113.094C13.3718 112.969 13.3705 112.767 13.2454 112.644L15.9642 109.889C16.0893 110.013 16.2907 110.011 16.4142 109.886L19.58 106.679C19.7035 106.553 19.7021 106.352 19.5771 106.229L22.2959 103.474C22.421 103.597 22.6224 103.596 22.7459 103.471L25.9117 100.263C26.0351 100.138 26.0338 99.9368 25.9088 99.8134L28.6276 97.0587C28.7526 97.1821 28.9541 97.1808 29.0775 97.0557L32.2434 93.8481C32.3668 93.7231 32.3655 93.5216 32.2404 93.3982L34.9593 90.6435C35.0843 90.7669 35.2858 90.7656 35.4092 90.6405L38.5751 87.4329C38.6985 87.3079 38.6972 87.1064 38.5721 86.983L41.2909 84.2283C41.416 84.3517 41.6175 84.3504 41.7409 84.2253L44.9067 81.0177C45.0302 80.8926 45.0289 80.6912 44.9038 80.5677L47.6226 77.8131C47.7477 77.9365 47.9492 77.9352 48.0726 77.8101L51.2384 74.6025C51.3619 74.4774 51.3605 74.276 51.2355 74.1525L53.9543 71.3978C54.0794 71.5213 54.2808 71.52 54.4043 71.3949L57.5701 68.1873C57.6936 68.0622 57.6922 67.8608 57.5672 67.7373L60.286 64.9826C60.4111 65.1061 60.6125 65.1048 60.736 64.9797L63.9018 61.7721C64.0252 61.647 64.0239 61.4455 63.8988 61.3221L66.6177 58.5674C66.7427 58.6909 66.9442 58.6895 67.0676 58.5645L70.2335 55.3569C70.3569 55.2318 70.3556 55.0303 70.2305 54.9069L72.9494 52.1522C73.0744 52.2756 73.2759 52.2743 73.3993 52.1493L76.5652 48.9416C76.6886 48.8166 76.6873 48.6151 76.5622 48.4917L79.281 45.737C79.4061 45.8604 79.6076 45.8591 79.731 45.734L82.8968 42.5264C83.0203 42.4014 83.019 42.1999 82.8939 42.0765L85.6127 39.3218C85.7378 39.4452 85.9392 39.4439 86.0627 39.3188L89.2285 36.1112C89.352 35.9861 89.3506 35.7847 89.2256 35.6613L91.9444 32.9066C92.0695 33.03 92.2709 33.0287 92.3944 32.9036L95.5602 29.696C95.6836 29.5709 95.6823 29.3695 95.5573 29.246L98.2761 26.4913C98.4012 26.6148 98.6026 26.6135 98.7261 26.4884L101.892 23.2808C102.015 23.1557 102.014 22.9543 101.889 22.8308L104.608 20.0761C104.733 20.1996 104.934 20.1983 105.058 20.0732L108.224 16.8656C108.347 16.7405 108.346 16.5391 108.221 16.4156Z" stroke="#130221" stroke-opacity="0.3" stroke-width="0.636357" stroke-linecap="round" stroke-dasharray="4.59 4.59"/>
<path d="M108.132 40.8353L110.896 38.0253C111.022 38.1486 111.223 38.1469 111.346 38.0217L112.952 36.3899C113.457 35.8766 113.988 35.4045 114.54 34.9736C114.678 34.8662 114.703 34.668 114.597 34.5295C115.601 33.7771 116.672 33.1549 117.786 32.6628C117.855 32.8229 118.04 32.898 118.201 32.8306C119.521 32.2783 120.899 31.9097 122.298 31.7247C122.471 31.7018 122.593 31.5436 122.572 31.3706C123.8 31.2323 125.04 31.2323 126.268 31.3706C126.247 31.5436 126.369 31.7018 126.542 31.7247C127.94 31.9097 129.319 32.2783 130.639 32.8306C130.8 32.898 130.985 32.8229 131.054 32.6628C132.168 33.1549 133.239 33.7771 134.243 34.5295C134.137 34.668 134.162 34.8662 134.3 34.9737C134.852 35.4045 135.383 35.8766 135.888 36.3899L137.493 38.0217C137.616 38.1469 137.818 38.1486 137.943 38.0253L140.708 40.8353C140.583 40.9585 140.581 41.16 140.704 41.2852L143.915 44.5488C144.038 44.674 144.24 44.6757 144.365 44.5524L147.13 47.3624C147.004 47.4856 147.003 47.6871 147.126 47.8123L150.337 51.0759C150.46 51.2011 150.662 51.2028 150.787 51.0795L153.551 53.8894C153.426 54.0127 153.425 54.2141 153.548 54.3394L156.759 57.6029C156.882 57.7282 157.083 57.7298 157.209 57.6066L159.973 60.4165C159.848 60.5398 159.846 60.7412 159.97 60.8665L163.18 64.13C163.304 64.2553 163.505 64.2569 163.63 64.1337L166.395 66.9436C166.27 67.0669 166.268 67.2683 166.391 67.3936L169.602 70.6571C169.726 70.7824 169.927 70.784 170.052 70.6608L172.817 73.4707C172.692 73.5939 172.69 73.7954 172.813 73.9207L176.024 77.1842C176.147 77.3095 176.349 77.3111 176.474 77.1879L179.239 79.9978C179.113 80.121 179.112 80.3225 179.235 80.4477L182.446 83.7113C182.569 83.8365 182.771 83.8382 182.896 83.7149L185.66 86.5249C185.535 86.6481 185.534 86.8496 185.657 86.9748L188.868 90.2384C188.991 90.3636 189.192 90.3653 189.318 90.242L192.082 93.052C191.957 93.1752 191.955 93.3766 192.079 93.5019L195.29 96.7655C195.413 96.8907 195.614 96.8924 195.739 96.7691L198.504 99.579C198.379 99.7023 198.377 99.9037 198.5 100.029L201.711 103.293C201.835 103.418 202.036 103.419 202.161 103.296L204.926 106.106C204.801 106.229 204.799 106.431 204.922 106.556L208.133 109.82C208.256 109.945 208.458 109.947 208.583 109.823L211.348 112.633C211.222 112.756 211.221 112.958 211.344 113.083L212.95 114.715C213.444 115.217 213.898 115.744 214.313 116.291C214.419 116.43 214.617 116.458 214.757 116.354C215.477 117.343 216.073 118.394 216.545 119.487C216.384 119.554 216.307 119.739 216.373 119.9C216.904 121.197 217.258 122.549 217.435 123.919C217.458 124.092 217.616 124.215 217.789 124.194C217.921 125.393 217.921 126.603 217.789 127.802C217.616 127.781 217.458 127.903 217.435 128.077C217.258 129.447 216.904 130.799 216.373 132.096C216.307 132.257 216.384 132.442 216.545 132.509C216.073 133.601 215.477 134.653 214.757 135.642C214.617 135.538 214.419 135.566 214.313 135.705C213.898 136.252 213.444 136.779 212.949 137.281L211.344 138.913C211.221 139.038 211.222 139.239 211.348 139.363L208.583 142.173C208.458 142.049 208.256 142.051 208.133 142.176L204.922 145.44C204.799 145.565 204.801 145.767 204.926 145.89L202.161 148.7C202.036 148.576 201.835 148.578 201.711 148.703L198.5 151.967C198.377 152.092 198.379 152.294 198.504 152.417L195.739 155.227C195.614 155.104 195.413 155.105 195.29 155.23L192.079 158.494C191.955 158.619 191.957 158.821 192.082 158.944L189.318 161.754C189.192 161.631 188.991 161.632 188.868 161.758L185.657 165.021C185.534 165.146 185.535 165.348 185.66 165.471L182.896 168.281C182.771 168.158 182.569 168.159 182.446 168.285L179.235 171.548C179.112 171.673 179.113 171.875 179.239 171.998L176.474 174.808C176.349 174.685 176.147 174.686 176.024 174.812L172.813 178.075C172.69 178.2 172.692 178.402 172.817 178.525L170.052 181.335C169.927 181.212 169.726 181.214 169.602 181.339L166.391 184.602C166.268 184.728 166.27 184.929 166.395 185.052L163.63 187.862C163.505 187.739 163.304 187.741 163.18 187.866L159.97 191.129C159.846 191.255 159.848 191.456 159.973 191.579L157.209 194.389C157.083 194.266 156.882 194.268 156.759 194.393L153.548 197.656C153.425 197.782 153.426 197.983 153.551 198.106L150.787 200.916C150.662 200.793 150.46 200.795 150.337 200.92L147.126 204.184C147.003 204.309 147.004 204.51 147.13 204.634L144.365 207.443C144.24 207.32 144.038 207.322 143.915 207.447L140.704 210.711C140.581 210.836 140.583 211.037 140.708 211.161L137.943 213.971C137.818 213.847 137.616 213.849 137.493 213.974L135.888 215.606C135.383 216.119 134.852 216.591 134.3 217.022C134.162 217.13 134.137 217.328 134.243 217.466C133.239 218.219 132.168 218.841 131.054 219.333C130.985 219.173 130.8 219.098 130.639 219.165C129.319 219.718 127.94 220.086 126.542 220.271C126.369 220.294 126.247 220.452 126.268 220.625C125.04 220.764 123.8 220.764 122.572 220.625C122.593 220.452 122.471 220.294 122.298 220.271C120.899 220.086 119.521 219.718 118.201 219.165C118.04 219.098 117.855 219.173 117.786 219.333C116.672 218.841 115.601 218.219 114.597 217.466C114.703 217.328 114.678 217.13 114.54 217.022C113.988 216.591 113.457 216.119 112.952 215.606L111.346 213.974C111.223 213.849 111.022 213.847 110.896 213.971L108.132 211.161C108.257 211.037 108.259 210.836 108.136 210.711L104.925 207.447C104.801 207.322 104.6 207.32 104.475 207.443L101.71 204.633C101.835 204.51 101.837 204.309 101.714 204.184L98.5028 200.92C98.3795 200.795 98.1781 200.793 98.0528 200.916L95.2882 198.106C95.4135 197.983 95.4151 197.782 95.2919 197.656L92.081 194.393C91.9577 194.268 91.7563 194.266 91.631 194.389L88.8664 191.579C88.9917 191.456 88.9933 191.255 88.8701 191.129L85.6592 187.866C85.5359 187.741 85.3345 187.739 85.2092 187.862L82.4446 185.052C82.5699 184.929 82.5715 184.728 82.4483 184.602L79.2374 181.339C79.1141 181.213 78.9127 181.212 78.7874 181.335L76.0228 178.525C76.1481 178.402 76.1497 178.2 76.0265 178.075L72.8155 174.812C72.6923 174.686 72.4909 174.685 72.3656 174.808L69.601 171.998C69.7262 171.875 69.7279 171.673 69.6046 171.548L66.3937 168.285C66.2705 168.159 66.069 168.158 65.9438 168.281L63.1792 165.471C63.3044 165.348 63.3061 165.146 63.1828 165.021L59.9719 161.757C59.8487 161.632 59.6472 161.631 59.522 161.754L56.7574 158.944C56.8826 158.821 56.8843 158.619 56.761 158.494L53.5501 155.23C53.4269 155.105 53.2254 155.104 53.1002 155.227L50.3356 152.417C50.4608 152.294 50.4625 152.092 50.3392 151.967L47.1283 148.703C47.0051 148.578 46.8036 148.576 46.6783 148.7L43.9137 145.89C44.039 145.766 44.0406 145.565 43.9174 145.44L40.7065 142.176C40.5833 142.051 40.3818 142.049 40.2565 142.173L37.4919 139.363C37.6172 139.239 37.6188 139.038 37.4956 138.913L35.8901 137.281C35.3958 136.778 34.9413 136.252 34.5264 135.705C34.4208 135.566 34.223 135.538 34.0831 135.642C33.3628 134.653 32.7668 133.601 32.295 132.509C32.4557 132.442 32.5323 132.257 32.4662 132.096C31.9359 130.799 31.5819 129.447 31.4043 128.077C31.3818 127.903 31.224 127.781 31.0509 127.802C30.9191 126.603 30.9191 125.393 31.0509 124.194C31.224 124.215 31.3818 124.092 31.4043 123.919C31.5819 122.549 31.9359 121.197 32.4662 119.9C32.5324 119.739 32.4557 119.554 32.295 119.486C32.7668 118.394 33.3628 117.343 34.0831 116.354C34.223 116.458 34.4208 116.43 34.5264 116.291C34.9413 115.744 35.3958 115.217 35.8901 114.715L37.4956 113.083C37.6188 112.958 37.6172 112.756 37.4919 112.633L40.2565 109.823C40.3818 109.947 40.5833 109.945 40.7065 109.82L43.9174 106.556C44.0407 106.431 44.039 106.229 43.9138 106.106L46.6784 103.296C46.8036 103.419 47.0051 103.418 47.1283 103.293L50.3392 100.029C50.4625 99.9037 50.4608 99.7023 50.3356 99.579L53.1002 96.7691C53.2254 96.8923 53.4269 96.8907 53.5501 96.7654L56.761 93.5019C56.8843 93.3766 56.8826 93.1752 56.7574 93.0519L59.522 90.242C59.6472 90.3653 59.8487 90.3636 59.9719 90.2384L63.1828 86.9748C63.3061 86.8496 63.3044 86.6481 63.1792 86.5249L65.9438 83.7149C66.0691 83.8382 66.2705 83.8365 66.3937 83.7113L69.6046 80.4477C69.7279 80.3225 69.7263 80.121 69.601 79.9978L72.3656 77.1878C72.4909 77.3111 72.6923 77.3095 72.8156 77.1842L76.0265 73.9206C76.1497 73.7954 76.1481 73.5939 76.0228 73.4707L78.7874 70.6608C78.9127 70.784 79.1141 70.7824 79.2374 70.6571L82.4483 67.3936C82.5715 67.2683 82.5699 67.0668 82.4446 66.9436L85.2092 64.1337C85.3345 64.2569 85.5359 64.2553 85.6592 64.13L88.8701 60.8665C88.9933 60.7412 88.9917 60.5398 88.8664 60.4165L91.631 57.6066C91.7563 57.7298 91.9577 57.7282 92.081 57.6029L95.2919 54.3394C95.4151 54.2141 95.4135 54.0127 95.2882 53.8894L98.0528 51.0795C98.1781 51.2027 98.3796 51.2011 98.5028 51.0758L101.714 47.8123C101.837 47.687 101.835 47.4856 101.71 47.3623L104.475 44.5524C104.6 44.6757 104.801 44.674 104.925 44.5488L108.136 41.2852C108.259 41.16 108.257 40.9585 108.132 40.8353Z" stroke="#130221" stroke-opacity="0.3" stroke-width="0.636357" stroke-linecap="round" stroke-dasharray="4.59 4.59"/>
<path d="M108.084 66.4248L110.893 63.5796C111.018 63.703 111.219 63.7017 111.343 63.5766L112.97 61.9276C113.475 61.4162 114.006 60.9459 114.557 60.5166C114.695 60.4093 114.721 60.2111 114.615 60.0725C115.618 59.3234 116.686 58.7038 117.798 58.2137C117.867 58.3739 118.052 58.4492 118.213 58.3818C119.531 57.8318 120.907 57.4646 122.302 57.2804C122.476 57.2575 122.598 57.0994 122.577 56.9263C123.801 56.7887 125.039 56.7887 126.264 56.9263C126.242 57.0994 126.365 57.2575 126.538 57.2804C127.933 57.4646 129.309 57.8318 130.627 58.3819C130.788 58.4492 130.973 58.3739 131.042 58.2137C132.154 58.7038 133.223 59.3234 134.225 60.0725C134.119 60.2111 134.145 60.4093 134.283 60.5166C134.835 60.9459 135.365 61.4162 135.87 61.9276L137.497 63.5766C137.621 63.7017 137.822 63.703 137.947 63.5796L140.756 66.4248C140.631 66.5482 140.63 66.7497 140.753 66.8748L144.008 70.1729C144.132 70.298 144.333 70.2993 144.458 70.1758L147.267 73.0211C147.142 73.1445 147.14 73.346 147.264 73.471L150.519 76.7691C150.643 76.8942 150.844 76.8955 150.969 76.7721L153.778 79.6173C153.653 79.7408 153.651 79.9422 153.775 80.0673L157.03 83.3654C157.154 83.4905 157.355 83.4918 157.48 83.3683L160.289 86.2136C160.164 86.337 160.162 86.5385 160.286 86.6635L163.541 89.9617C163.665 90.0867 163.866 90.088 163.991 89.9646L166.8 92.8098C166.675 92.9333 166.673 93.1347 166.797 93.2598L170.052 96.5579C170.176 96.683 170.377 96.6843 170.502 96.5608L173.311 99.4061C173.186 99.5295 173.184 99.731 173.308 99.856L176.563 103.154C176.687 103.279 176.888 103.281 177.013 103.157L179.822 106.002C179.697 106.126 179.695 106.327 179.819 106.452L183.074 109.75C183.198 109.875 183.399 109.877 183.524 109.753L186.333 112.599C186.208 112.722 186.206 112.923 186.33 113.049L187.957 114.698C188.454 115.2 188.91 115.727 189.326 116.275C189.432 116.414 189.63 116.442 189.77 116.337C190.493 117.328 191.092 118.381 191.566 119.476C191.405 119.543 191.328 119.728 191.395 119.889C191.927 121.188 192.283 122.543 192.461 123.916C192.483 124.089 192.641 124.212 192.814 124.191C192.947 125.393 192.947 126.606 192.814 127.807C192.641 127.787 192.483 127.909 192.461 128.082C192.283 129.456 191.927 130.81 191.395 132.109C191.328 132.271 191.405 132.455 191.566 132.523C191.092 133.617 190.493 134.67 189.77 135.661C189.63 135.557 189.432 135.584 189.326 135.723C188.91 136.271 188.454 136.798 187.957 137.301L186.33 138.95C186.206 139.075 186.208 139.276 186.333 139.4L183.524 142.245C183.399 142.122 183.198 142.123 183.074 142.248L179.819 145.546C179.695 145.671 179.697 145.873 179.822 145.996L177.013 148.841C176.888 148.718 176.687 148.719 176.563 148.844L173.308 152.142C173.184 152.267 173.186 152.469 173.311 152.592L170.502 155.438C170.377 155.314 170.176 155.315 170.052 155.44L166.797 158.739C166.673 158.864 166.675 159.065 166.8 159.189L163.991 162.034C163.866 161.91 163.665 161.912 163.541 162.037L160.286 165.335C160.162 165.46 160.164 165.661 160.289 165.785L157.48 168.63C157.355 168.507 157.154 168.508 157.03 168.633L153.775 171.931C153.651 172.056 153.653 172.258 153.778 172.381L150.969 175.226C150.844 175.103 150.643 175.104 150.519 175.229L147.264 178.527C147.14 178.652 147.142 178.854 147.267 178.977L144.458 181.823C144.333 181.699 144.132 181.7 144.008 181.825L140.753 185.124C140.63 185.249 140.631 185.45 140.756 185.574L137.947 188.419C137.822 188.295 137.621 188.297 137.497 188.422L135.87 190.071C135.365 190.582 134.835 191.053 134.283 191.482C134.145 191.589 134.119 191.787 134.225 191.926C133.223 192.675 132.154 193.295 131.042 193.785C130.973 193.624 130.788 193.549 130.627 193.617C129.309 194.167 127.933 194.534 126.538 194.718C126.365 194.741 126.242 194.899 126.264 195.072C125.039 195.21 123.801 195.21 122.577 195.072C122.598 194.899 122.476 194.741 122.302 194.718C120.907 194.534 119.531 194.167 118.213 193.617C118.052 193.549 117.867 193.624 117.798 193.785C116.686 193.295 115.618 192.675 114.615 191.926C114.721 191.787 114.695 191.589 114.557 191.482C114.006 191.053 113.475 190.582 112.97 190.071L111.343 188.422C111.219 188.297 111.018 188.295 110.893 188.419L108.084 185.574C108.209 185.45 108.211 185.249 108.087 185.124L104.832 181.825C104.708 181.7 104.507 181.699 104.382 181.823L101.573 178.977C101.698 178.854 101.7 178.652 101.576 178.527L98.3208 175.229C98.1973 175.104 97.9959 175.103 97.8708 175.226L95.0624 172.381C95.1874 172.258 95.1888 172.056 95.0653 171.931L91.8098 168.633C91.6864 168.508 91.4849 168.507 91.3599 168.63L88.5514 165.785C88.6765 165.661 88.6778 165.46 88.5544 165.335L85.2989 162.037C85.1754 161.912 84.974 161.91 84.8489 162.034L82.0405 159.189C82.1655 159.065 82.1668 158.864 82.0434 158.739L78.7879 155.44C78.6645 155.315 78.463 155.314 78.338 155.438L75.5295 152.592C75.6546 152.469 75.6559 152.267 75.5324 152.142L72.277 148.844C72.1535 148.719 71.9521 148.718 71.827 148.841L69.0186 145.996C69.1436 145.873 69.1449 145.671 69.0215 145.546L65.766 142.248C65.6426 142.123 65.4411 142.122 65.316 142.245L62.5076 139.4C62.6327 139.276 62.634 139.075 62.5105 138.95L60.8828 137.301C60.3866 136.798 59.9303 136.271 59.5138 135.723C59.4081 135.584 59.2102 135.557 59.0704 135.661C58.347 134.67 57.7484 133.617 57.2746 132.523C57.4352 132.455 57.5117 132.271 57.4454 132.109C56.9129 130.81 56.5575 129.455 56.3792 128.082C56.3567 127.909 56.1988 127.786 56.0257 127.807C55.8932 126.606 55.8932 125.393 56.0257 124.191C56.1988 124.212 56.3567 124.089 56.3792 123.916C56.5575 122.543 56.913 121.188 57.4455 119.889C57.5117 119.728 57.4352 119.543 57.2746 119.476C57.7484 118.381 58.347 117.328 59.0704 116.337C59.2102 116.442 59.4081 116.414 59.5139 116.275C59.9303 115.727 60.3866 115.2 60.8828 114.698L62.5105 113.049C62.634 112.923 62.6327 112.722 62.5076 112.599L65.316 109.753C65.4411 109.877 65.6426 109.875 65.766 109.75L69.0215 106.452C69.1449 106.327 69.1436 106.126 69.0186 106.002L71.827 103.157C71.9521 103.281 72.1535 103.279 72.277 103.154L75.5324 99.856C75.6559 99.731 75.6546 99.5295 75.5295 99.4061L78.338 96.5608C78.463 96.6843 78.6645 96.683 78.7879 96.5579L82.0434 93.2598C82.1668 93.1347 82.1655 92.9333 82.0405 92.8098L84.8489 89.9646C84.974 90.088 85.1754 90.0867 85.2989 89.9616L88.5544 86.6635C88.6778 86.5385 88.6765 86.337 88.5514 86.2136L91.3599 83.3683C91.4849 83.4918 91.6864 83.4905 91.8098 83.3654L95.0653 80.0673C95.1888 79.9422 95.1875 79.7407 95.0624 79.6173L97.8708 76.7721C97.9959 76.8955 98.1973 76.8942 98.3208 76.7691L101.576 73.471C101.7 73.3459 101.698 73.1445 101.573 73.021L104.382 70.1758C104.507 70.2993 104.708 70.2979 104.832 70.1729L108.087 66.8748C108.211 66.7497 108.209 66.5482 108.084 66.4248Z" stroke="#130221" stroke-opacity="0.3" stroke-width="0.636357" stroke-linecap="round" stroke-dasharray="4.59 4.59"/>
<path d="M108.364 87.8826L110.968 85.2315C111.093 85.3546 111.295 85.3528 111.418 85.2274L112.942 83.6748C113.447 83.1603 113.978 82.6872 114.531 82.2553C114.669 82.1477 114.694 81.9495 114.588 81.8111C115.592 81.0568 116.664 80.4329 117.78 79.9396C117.849 80.0997 118.034 80.1747 118.195 80.1072C119.516 79.5536 120.896 79.184 122.297 78.9986C122.47 78.9756 122.592 78.8174 122.571 78.6444C123.8 78.5057 125.042 78.5057 126.272 78.6444C126.251 78.8174 126.373 78.9756 126.546 78.9986C127.946 79.184 129.326 79.5536 130.647 80.1072C130.809 80.1747 130.994 80.0997 131.063 79.9396C132.178 80.4329 133.25 81.0568 134.255 81.8111C134.149 81.9495 134.174 82.1477 134.312 82.2553C134.864 82.6872 135.395 83.1603 135.9 83.6748L137.425 85.2274C137.548 85.3528 137.75 85.3546 137.875 85.2315L140.478 87.8826C140.353 88.0058 140.351 88.2072 140.474 88.3326L143.523 91.4378C143.646 91.5632 143.848 91.565 143.973 91.4419L146.576 94.093C146.451 94.2161 146.449 94.4176 146.572 94.543L149.621 97.6482C149.744 97.7736 149.946 97.7754 150.071 97.6523L152.674 100.303C152.549 100.427 152.547 100.628 152.67 100.753L155.719 103.859C155.843 103.984 156.044 103.986 156.169 103.863L158.773 106.514C158.647 106.637 158.645 106.838 158.769 106.964L161.818 110.069C161.941 110.194 162.142 110.196 162.268 110.073L164.871 112.724C164.745 112.847 164.744 113.049 164.867 113.174L166.391 114.727C166.884 115.229 167.338 115.755 167.752 116.302C167.857 116.441 168.055 116.469 168.195 116.366C168.913 117.354 169.508 118.404 169.978 119.494C169.818 119.562 169.741 119.746 169.807 119.908C170.336 121.203 170.689 122.554 170.866 123.922C170.889 124.096 171.047 124.218 171.22 124.197C171.351 125.394 171.351 126.603 171.22 127.799C171.047 127.779 170.889 127.901 170.866 128.075C170.689 129.443 170.336 130.794 169.807 132.089C169.741 132.25 169.818 132.435 169.978 132.502C169.508 133.593 168.913 134.643 168.195 135.631C168.055 135.527 167.857 135.555 167.752 135.695C167.338 136.241 166.884 136.768 166.391 137.27L164.867 138.823C164.744 138.948 164.745 139.15 164.871 139.273L162.268 141.924C162.142 141.801 161.941 141.803 161.818 141.928L158.769 145.033C158.645 145.158 158.647 145.36 158.773 145.483L156.169 148.134C156.044 148.011 155.843 148.013 155.719 148.138L152.67 151.243C152.547 151.369 152.549 151.57 152.674 151.693L150.071 154.345C149.946 154.221 149.744 154.223 149.621 154.349L146.572 157.454C146.449 157.579 146.451 157.781 146.576 157.904L143.973 160.555C143.848 160.432 143.646 160.434 143.523 160.559L140.474 163.664C140.351 163.79 140.353 163.991 140.478 164.114L137.875 166.765C137.75 166.642 137.548 166.644 137.425 166.769L135.9 168.322C135.395 168.837 134.864 169.31 134.312 169.742C134.174 169.849 134.149 170.047 134.255 170.186C133.25 170.94 132.178 171.564 131.063 172.057C130.994 171.897 130.809 171.822 130.647 171.89C129.326 172.443 127.946 172.813 126.546 172.998C126.373 173.021 126.251 173.179 126.272 173.352C125.042 173.491 123.8 173.491 122.571 173.352C122.592 173.179 122.47 173.021 122.297 172.998C120.896 172.813 119.516 172.443 118.195 171.89C118.034 171.822 117.849 171.897 117.78 172.057C116.664 171.564 115.592 170.94 114.588 170.186C114.694 170.047 114.669 169.849 114.531 169.742C113.978 169.31 113.447 168.837 112.942 168.322L111.418 166.769C111.295 166.644 111.093 166.642 110.968 166.765L108.364 164.114C108.49 163.991 108.492 163.79 108.369 163.664L105.319 160.559C105.196 160.434 104.995 160.432 104.87 160.555L102.266 157.904C102.392 157.781 102.394 157.579 102.27 157.454L99.2213 154.349C99.0982 154.223 98.8968 154.221 98.7714 154.345L96.1681 151.693C96.2935 151.57 96.2954 151.369 96.1722 151.243L93.1232 148.138C93 148.013 92.7986 148.011 92.6732 148.134L90.07 145.483C90.1954 145.36 90.1972 145.158 90.0741 145.033L87.025 141.928C86.9019 141.803 86.7004 141.801 86.5751 141.924L83.9718 139.273C84.0972 139.15 84.099 138.948 83.9759 138.823L82.4514 137.27C81.9582 136.768 81.5047 136.241 81.0908 135.695C80.9854 135.555 80.7875 135.527 80.6476 135.631C79.9292 134.643 79.3348 133.593 78.8642 132.502C79.025 132.435 79.1017 132.25 79.0356 132.089C78.5066 130.794 78.1535 129.443 77.9763 128.075C77.9539 127.901 77.7961 127.779 77.623 127.799C77.4916 126.603 77.4916 125.394 77.623 124.197C77.7961 124.218 77.9539 124.096 77.9763 123.922C78.1535 122.554 78.5066 121.203 79.0356 119.908C79.1017 119.746 79.025 119.562 78.8642 119.494C79.3348 118.404 79.9292 117.354 80.6476 116.366C80.7875 116.469 80.9854 116.441 81.0908 116.302C81.5047 115.755 81.9582 115.229 82.4514 114.727L83.9759 113.174C84.099 113.049 84.0972 112.847 83.9718 112.724L86.575 110.073C86.7004 110.196 86.9019 110.194 87.025 110.069L90.0741 106.964C90.1972 106.838 90.1954 106.637 90.07 106.514L92.6732 103.863C92.7986 103.986 93 103.984 93.1232 103.859L96.1722 100.753C96.2954 100.628 96.2935 100.427 96.1681 100.303L98.7714 97.6523C98.8968 97.7754 99.0982 97.7736 99.2213 97.6482L102.27 94.543C102.394 94.4176 102.392 94.2162 102.266 94.093L104.87 91.4419C104.995 91.565 105.196 91.5632 105.319 91.4378L108.369 88.3326C108.492 88.2072 108.49 88.0058 108.364 87.8826Z" stroke="#130221" stroke-opacity="0.3" stroke-width="0.636357" stroke-linecap="round" stroke-dasharray="4.59 4.59"/>
<path d="M115.74 100.608C120.555 95.731 128.428 95.731 133.242 100.608L149.78 117.361C154.508 122.15 154.508 129.85 149.78 134.639L133.242 151.391C128.428 156.269 120.555 156.269 115.74 151.391L99.2022 134.639C94.4744 129.85 94.4744 122.15 99.2022 117.361L115.74 100.608Z" fill="#D5D1D9"/>
<path d="M124.052 6.54102L124.052 97.8915" stroke="#130221" stroke-opacity="0.3" stroke-width="0.636357" stroke-linecap="round" stroke-linejoin="round"/>
<path d="M124.052 154.986L124.052 246.337" stroke="#130221" stroke-opacity="0.3" stroke-width="0.636357" stroke-linecap="round" stroke-linejoin="round"/>
</svg>
