<svg width="20" height="21" viewBox="0 0 20 21" fill="none" xmlns="http://www.w3.org/2000/svg">
<path d="M16.1667 13.5C16.1667 13.9602 16.5398 14.3333 17 14.3333C17.4602 14.3333 17.8333 13.9602 17.8333 13.5H16.1667ZM2.16667 13.5C2.16667 13.9602 2.53976 14.3333 3 14.3333C3.46024 14.3333 3.83333 13.9602 3.83333 13.5H2.16667ZM4.75 4.83333H15.25V3.16667H4.75V4.83333ZM16.1667 5.69231V13.5H17.8333V5.69231H16.1667ZM3.83333 13.5V5.69231H2.16667V13.5H3.83333ZM15.25 4.83333C15.7828 4.83333 16.1667 5.24402 16.1667 5.69231H17.8333C17.8333 4.27132 16.6502 3.16667 15.25 3.16667V4.83333ZM4.75 3.16667C3.34982 3.16667 2.16667 4.27132 2.16667 5.69231H3.83333C3.83333 5.24402 4.21719 4.83333 4.75 4.83333V3.16667ZM3 14.8333H17V13.1667H3V14.8333ZM17.1667 15V16H18.8333V15H17.1667ZM17 16.1667H3V17.8333H17V16.1667ZM2.83333 16V15H1.16667V16H2.83333ZM3 16.1667C2.90795 16.1667 2.83333 16.092 2.83333 16H1.16667C1.16667 17.0125 1.98748 17.8333 3 17.8333V16.1667ZM17.1667 16C17.1667 16.092 17.092 16.1667 17 16.1667V17.8333C18.0125 17.8333 18.8333 17.0125 18.8333 16H17.1667ZM17 14.8333C17.092 14.8333 17.1667 14.908 17.1667 15H18.8333C18.8333 13.9875 18.0125 13.1667 17 13.1667V14.8333ZM3 13.1667C1.98748 13.1667 1.16667 13.9875 1.16667 15H2.83333C2.83333 14.908 2.90795 14.8333 3 14.8333V13.1667Z" fill="#A140F2"/>
</svg>
