<svg width="24" height="24" viewBox="0 0 24 24" fill="none" xmlns="http://www.w3.org/2000/svg">
<path d="M12.0003 6.00002V6.03325M6.03325 12.0003H6.00002M16.243 7.75757L16.2195 7.78107M7.7812 16.2194L7.7577 16.2429M7.7812 7.78069L7.7577 7.75719M12 21.6C6.69809 21.6 2.40002 17.302 2.40002 12C2.40002 6.69809 6.69809 2.40002 12 2.40002C17.302 2.40002 21.6 6.69809 21.6 12C21.6 13.6141 20.1086 14.688 18.4946 14.688H17.868C17.5445 14.688 17.2254 14.7633 16.936 14.908C15.9066 15.4228 15.4893 16.6746 16.004 17.704C16.1487 17.9934 16.224 18.3125 16.224 18.636V18.8252C16.224 19.9257 15.6064 20.968 14.545 21.259C13.7345 21.4813 12.8811 21.6 12 21.6Z" stroke="#A140F2" stroke-width="2" stroke-linecap="round" stroke-linejoin="round"/>
</svg>
