<svg width="17" height="16" viewBox="0 0 17 16" fill="none" xmlns="http://www.w3.org/2000/svg">
<path d="M7.76067 2.11474C8.01464 1.42841 8.98537 1.42841 9.23934 2.11474L10.5034 5.53083C10.5833 5.74661 10.7534 5.91674 10.9692 5.99659L14.3853 7.26066C15.0716 7.51462 15.0716 8.48536 14.3853 8.73932L10.9692 10.0034C10.7534 10.0832 10.5833 10.2534 10.5034 10.4691L9.23934 13.8852C8.98537 14.5716 8.01464 14.5716 7.76067 13.8852L6.4966 10.4691C6.41676 10.2534 6.24663 10.0832 6.03085 10.0034L2.61476 8.73933C1.92842 8.48536 1.92842 7.51462 2.61475 7.26066L6.03085 5.99659C6.24663 5.91674 6.41676 5.74661 6.4966 5.53083L7.76067 2.11474Z" stroke="#565BD9" stroke-width="1.33333" stroke-linejoin="round"/>
</svg>
